<svg viewBox="0 0 30 30">
  <path fill-rule="evenodd" clip-rule="evenodd"
    d="M9.06309 8.78453C9.06268 8.77307 9.06247 8.76156 9.06247 8.75C9.06247 5.47081 11.7208 2.8125 15 2.8125C18.2792 2.8125 20.9375 5.47081 20.9375 8.75C20.9375 8.76156 20.9373 8.77308 20.9368 8.78454C23.1204 9.04203 24.9105 10.7134 25.2796 12.928L26.5296 20.428C27.0375 23.4757 24.6873 26.25 21.5976 26.25H8.40224C5.31254 26.25 2.96233 23.4757 3.47027 20.428L4.72027 12.928C5.08938 10.7133 6.87955 9.042 9.06309 8.78453ZM10.9375 8.75C10.9375 6.50634 12.7563 4.6875 15 4.6875C17.2436 4.6875 19.0625 6.50634 19.0625 8.75H10.9375Z"
  />
</svg>