<svg viewBox="0 0 33 30">
  <path fill-rule="evenodd" clip-rule="evenodd"
    d="M25.8411 7.80427C24.1415 7.08487 22.3189 6.55484 20.4132 6.25127C20.3785 6.24541 20.3438 6.26006 20.326 6.28934C20.0915 6.67392 19.8319 7.17564 19.6501 7.56999C17.6004 7.28693 15.5613 7.28693 13.5537 7.56999C13.3718 7.16688 13.1027 6.67392 12.8673 6.28934C12.8494 6.26103 12.8147 6.24639 12.78 6.25127C10.8754 6.55387 9.05283 7.0839 7.35213 7.80427C7.33741 7.81013 7.32479 7.8199 7.31641 7.83258C3.85931 12.597 2.91226 17.2443 3.37685 21.834C3.37895 21.8564 3.39261 21.8779 3.41153 21.8916C5.69243 23.4368 7.90188 24.3748 10.0703 24.9966C10.105 25.0064 10.1418 24.9946 10.1638 24.9683C10.6768 24.3221 11.134 23.6408 11.5261 22.9243C11.5492 22.8823 11.5271 22.8325 11.4798 22.816C10.7546 22.5622 10.064 22.2527 9.39968 21.9013C9.34714 21.873 9.34293 21.8037 9.39127 21.7705C9.53106 21.6739 9.67089 21.5733 9.80437 21.4718C9.82853 21.4533 9.86218 21.4494 9.89057 21.4611C14.2547 23.2991 18.9795 23.2991 23.2921 21.4611C23.3205 21.4484 23.3542 21.4523 23.3794 21.4709C23.5129 21.5724 23.6527 21.6739 23.7936 21.7705C23.8419 21.8037 23.8387 21.873 23.7862 21.9013C23.1219 22.2596 22.4313 22.5622 21.705 22.815C21.6577 22.8316 21.6367 22.8823 21.6598 22.9243C22.0603 23.6398 22.5175 24.3211 23.021 24.9673C23.042 24.9946 23.0798 25.0064 23.1145 24.9966C25.2935 24.3748 27.5029 23.4368 29.7838 21.8916C29.8038 21.8779 29.8164 21.8574 29.8185 21.835C30.3745 16.5288 28.8872 11.9196 25.8758 7.83355C25.8684 7.8199 25.8558 7.81013 25.8411 7.80427ZM14.6266 16.5625C14.6266 17.9432 13.5372 19.0625 12.1933 19.0625C10.8494 19.0625 9.75997 17.9432 9.75997 16.5625C9.75997 15.1818 10.8494 14.0625 12.1933 14.0625C13.5372 14.0625 14.6266 15.1818 14.6266 16.5625ZM20.9799 19.0625C22.3238 19.0625 23.4133 17.9432 23.4133 16.5625C23.4133 15.1818 22.3238 14.0625 20.9799 14.0625C19.636 14.0625 18.5466 15.1818 18.5466 16.5625C18.5466 17.9432 19.636 19.0625 20.9799 19.0625Z" />
</svg>