<svg viewBox="0 0 30 30">
  <path
    d="M11.25 10.625C11.25 11.6605 10.4105 12.5 9.375 12.5C8.33947 12.5 7.5 11.6605 7.5 10.625C7.5 9.58947 8.33947 8.75 9.375 8.75C10.4105 8.75 11.25 9.58947 11.25 10.625Z"
  />
  <path fill-rule="evenodd" clip-rule="evenodd"
    d="M7.5 5H22.5C25.2614 5 27.5 7.23858 27.5 10V20C27.5 22.7614 25.2614 25 22.5 25H7.5C4.73858 25 2.5 22.7614 2.5 20V10C2.5 7.23858 4.73858 5 7.5 5ZM22.5 6.875H7.5C5.77411 6.875 4.375 8.27411 4.375 10V20C4.375 20.9964 4.84136 21.8839 5.56771 22.4562L8.17607 19.3832C9.0409 18.194 10.839 18.2735 11.5955 19.5344C12.4733 20.9975 14.6494 20.8126 15.2678 19.2223L16.6473 15.6752C17.2426 14.1442 19.3447 13.9821 20.1678 15.4037L24.5308 22.3753C25.2005 21.8021 25.625 20.9506 25.625 20V10C25.625 8.27411 24.2259 6.875 22.5 6.875Z"
  />
</svg>