<svg viewBox="0 0 32 30">
  <path
    d="M19.3333 27.1062C25.0841 25.7186 29.3333 20.8245 29.3333 15C29.3333 8.09644 23.3638 2.5 16 2.5C8.6362 2.5 2.66666 8.09644 2.66666 15C2.66666 20.8245 6.91591 25.7186 12.6667 27.1062V24.0855C11.5556 24.2963 9.06666 24.3384 8 22.8212C6.93333 21.304 6.22222 20.5032 6 20.2925C6.22222 19.871 7.06666 19.4074 8.66666 20.9246C10.6667 22.8212 12.6667 23.0831 12.6667 22.1891C12.7836 21.6345 12.9778 21.0636 13.6762 20.9461C12.372 20.9355 7.88041 20.4229 7.33333 15.2351C7.33333 12.0745 8.66666 11.4423 8.66666 11.4423C8.66666 11.4423 7.33333 10.8101 8.66666 7.64921C8.66666 7.64921 9.91312 7.45439 10.6667 7.64921C11.5722 7.88334 12.6667 8.91306 12.6667 8.91306C12.6667 8.91306 14 8.28123 16 8.28088C18 8.28123 19.3333 8.91293 19.3333 8.91293C19.3333 8.91293 20.4278 7.88322 21.3333 7.64909C22.0869 7.45426 23.3333 7.64909 23.3333 7.64909C24.6667 10.81 23.3333 11.4422 23.3333 11.4422C23.3333 11.4422 24.6667 12.0743 24.6667 15.235C24.1096 20.5176 19.4625 20.9445 18.2555 20.9421C19.0054 21.0795 19.3327 21.9787 19.3333 27.1062Z" />
</svg>