<svg viewBox="0 0 33 30">
  <path
    d="M19.1411 26.0338C21.864 25.526 24.3149 24.1489 26.0761 22.1369C27.6939 20.2888 28.6379 18.0101 28.7809 15.634C28.7936 15.4233 28.8 15.2119 28.8 15V13.875H16.8V16.6875H25.0049C24.7226 17.8937 24.1397 19.029 23.2933 19.9958C22.0604 21.4042 20.3448 22.3682 18.4387 22.7237C16.5327 23.0791 14.5542 22.804 12.8403 21.9451C11.1263 21.0863 9.7831 19.6969 9.0394 18.0136C8.2957 16.3304 8.19756 14.4575 8.76169 12.714C9.32583 10.9705 10.5173 9.46439 12.1332 8.45219C13.7491 7.43998 15.6893 6.98435 17.6233 7.16293C19.5574 7.34151 21.3655 8.14325 22.7397 9.43154L25.2853 7.04506C23.3222 5.20464 20.7391 4.0593 17.9762 3.80419C15.2133 3.54908 12.4415 4.19998 10.1331 5.64598C7.82477 7.09199 6.12261 9.24363 5.31671 11.7343C4.5108 14.225 4.65101 16.9006 5.71344 19.3052C6.77587 21.7098 8.69478 23.6947 11.1432 24.9216C13.5917 26.1485 16.4182 26.5416 19.1411 26.0338Z"
  />
</svg>