<svg viewBox="0 0 31 30">
  <path fill-rule="evenodd" clip-rule="evenodd"
    d="M4.48671 14.3198C10.518 11.6516 14.5497 9.92697 16.5493 9.08094C22.2904 6.67301 23.4837 6.25 24.2578 6.25C24.4191 6.25 24.8061 6.28254 25.0641 6.47778C25.2577 6.64047 25.3222 6.86825 25.3544 7.03095C25.3867 7.19365 25.4189 7.55158 25.3867 7.84444C25.0641 11.1309 23.7418 19.1682 23.0322 22.8452C22.7419 24.4071 22.1614 24.9277 21.6131 24.9928C20.4197 25.0904 19.4844 24.1793 18.3233 23.4309C16.5171 22.2269 15.485 21.4785 13.7111 20.3071C11.6791 18.9404 13.0015 18.192 14.1626 16.988C14.4529 16.6627 19.7746 11.8143 19.8714 11.3587C19.8714 11.2936 19.9037 11.0984 19.7746 11.0008C19.6456 10.9032 19.4844 10.9357 19.3554 10.9682C19.1618 11.0008 16.2591 12.9531 10.6148 16.7928C9.77621 17.3785 9.03439 17.6388 8.35707 17.6388C7.61525 17.6388 6.19612 17.2158 5.13177 16.8579C3.84165 16.4349 2.80956 16.2071 2.90631 15.4912C3.00307 15.1008 3.51912 14.7103 4.48671 14.3198Z"
  />
</svg>